<svg xmlns="http://www.w3.org/2000/svg" viewBox="0 0 64 64" fill="white">
  <!-- Option 6: Solid trident/merge - bold and simple -->
  <!-- Top arm -->
  <path d="M8,8 L8,16 Q8,20 12,22 L26,28 L26,24 L16,20 Q14,19 14,17 L14,8 Z" />
  <!-- Middle arm -->
  <rect x="8" y="28" width="18" height="8" rx="2" />
  <!-- Bottom arm -->
  <path d="M8,56 L8,48 Q8,44 12,42 L26,36 L26,40 L16,44 Q14,45 14,47 L14,56 Z" />
  <!-- Center body -->
  <rect x="24" y="22" width="12" height="20" rx="4" />
  <!-- Output -->
  <path d="M34,26 L52,26 Q56,26 56,30 L56,34 Q56,38 52,38 L34,38 Z" />
  <!-- Arrow tip -->
  <polygon points="54,22 64,32 54,42" />
</svg>